<svg width="1214" height="473" viewBox="0 0 1214 473" fill="none" xmlns="http://www.w3.org/2000/svg">
<g clip-path="url(#clip0_0_1)">
<path d="M1214 316.525H881.141" stroke="#090814" stroke-width="1.5" stroke-miterlimit="10"/>
<path d="M954.496 84.6467H933.824V109.425H954.496V84.6467Z" fill="#D9D9D9"/>
<path d="M977.234 88.7763H956.562V109.425H977.234V88.7763Z" fill="#D9D9D9"/>
<path d="M999.973 88.7763H979.301V109.425H999.973V88.7763Z" fill="#D9D9D9"/>
<path d="M1045.45 92.906H1024.78V109.425H1045.45V92.906Z" fill="#D9D9D9"/>
<path d="M1022.71 30.961H1002.04V109.425H1022.71V30.961Z" fill="#2F4644"/>
<path d="M1113.19 0.475159H866.476V109.442H1113.19V0.475159Z" stroke="#090814" stroke-width="1.5" stroke-miterlimit="10"/>
<path d="M1161.47 281.768L1152.71 290.959L1143.37 282.335L1152.13 273.144L1161.47 281.768Z" fill="#ED9DA0"/>
<path d="M1168.47 291.182L1149.84 310.719C1148.25 312.389 1146.26 313.708 1144.09 314.535L1138.9 316.512C1137.82 316.921 1136.59 316.684 1135.75 315.909C1134.76 314.999 1134.51 313.543 1135.14 312.366L1140.14 303.006L1145.47 284.025L1145.53 284.06C1146.98 284.952 1149.18 286.291 1149.33 286.347C1152.09 286.445 1154.07 285.752 1155.21 284.287C1157.19 281.732 1155.93 277.653 1155.92 277.612L1155.91 277.581L1155.93 277.559C1156.51 277.066 1157.12 276.869 1157.75 276.972C1159.07 277.193 1160.01 278.678 1160.15 278.906C1161.39 278.854 1165.21 281.835 1165.51 282.077C1167.38 282.072 1168.76 282.515 1169.59 283.395C1170.32 284.163 1170.64 285.255 1170.53 286.638C1170.41 288.302 1169.68 289.916 1168.47 291.182Z" fill="#090814"/>
<path d="M1151.35 292.35H1138.55V304.954H1151.35V292.35Z" fill="#ED9DA0"/>
<path d="M1149.17 316.419H1121.94C1119.62 316.419 1117.28 315.895 1115.18 314.903L1110.16 312.528C1109.13 312.038 1108.46 310.988 1108.46 309.855C1108.46 308.526 1109.36 307.351 1110.67 306.996L1121.02 304.177L1138.73 295.014L1138.75 295.08C1139.08 296.731 1139.59 299.226 1139.65 299.377C1141.47 301.425 1143.34 302.368 1145.2 302.182C1148.45 301.858 1150.61 298.164 1150.63 298.126L1150.65 298.098L1150.68 298.101C1151.45 298.179 1152.01 298.481 1152.36 298.999C1153.1 300.1 1152.65 301.795 1152.57 302.05C1153.46 302.905 1153.86 307.681 1153.89 308.067C1155.17 309.406 1155.78 310.694 1155.7 311.894C1155.63 312.943 1155.04 313.918 1153.95 314.791C1152.63 315.841 1150.93 316.419 1149.17 316.419Z" fill="#090814"/>
<path d="M1152.87 133.614L1107.49 133.636L1092.37 227.899L1137.75 281.777L1152.87 268.307L1117.01 227.899L1152.87 133.614Z" fill="#090814"/>
<path d="M1126.05 147.509L1152.87 133.614V295.246L1137.75 295.661L1126.05 147.509Z" fill="#090814"/>
<path d="M1099.18 171.414L1099.5 156.7L1090.9 156.514L1090.58 171.228C1088.98 172.716 1087.92 175.028 1087.86 177.649C1087.76 182.235 1090.76 186.02 1094.56 186.102C1098.36 186.185 1101.52 182.533 1101.62 177.947C1101.68 175.326 1100.72 172.97 1099.18 171.414Z" fill="#ED9DA0"/>
<path d="M1139.97 27.7185C1139.97 27.7185 1152.31 27.6919 1147.7 15.8096C1143.09 3.92725 1134.5 9.24761 1134.5 9.24761C1134.5 9.24761 1130.88 11.1568 1131.63 15.4166" fill="#090814"/>
<path d="M1141.2 33.4181C1141.2 24.3078 1133.81 16.9225 1124.69 16.9225C1115.57 16.9225 1108.17 24.3078 1108.17 33.4181C1108.17 40.8065 1113.04 47.0596 1119.74 49.1597L1122.93 70.2344L1139.21 56.6873C1139.21 56.6873 1135.69 52.214 1133.81 47.1701C1138.26 44.216 1141.2 39.1609 1141.2 33.4181Z" fill="#ED9DA0"/>
<path d="M1132.62 47.3529C1132.62 47.3529 1134.81 38.9544 1131.23 35.0927C1127.65 31.2399 1127.19 37.2348 1127.19 37.2348L1124.61 36.6742C1124.61 36.6742 1125.06 30.8442 1120.01 29.8352L1123.26 22.8841C1123.26 22.8841 1110.8 25.301 1110.45 24.0954C1107.75 14.6091 1133.54 6.50562 1140.66 20.9781C1151.73 43.4877 1132.62 47.3529 1132.62 47.3529Z" fill="#090814"/>
<path d="M1118.04 62.0483C1106.05 64.3884 1097.05 74.3597 1095.96 86.5132L1088.49 169.629H1101.59L1118.04 62.0483Z" fill="#2F4644"/>
<path d="M1105.65 128.27L1103.61 151.737L1158.98 135.473L1152.23 118.511L1164.79 89.6986L1139.15 52.9865L1118.68 54.3806L1110.77 64.6042" fill="#2F4644"/>
<path d="M1150.8 150.557L1158.52 138.023L1151.2 133.519L1143.47 146.053C1141.34 146.527 1139.25 147.987 1137.88 150.22C1135.47 154.127 1136.14 158.907 1139.38 160.897C1142.62 162.887 1147.19 161.332 1149.6 157.425C1150.97 155.192 1151.34 152.676 1150.8 150.557Z" fill="#ED9DA0"/>
<path d="M1134.96 53.4512L1139.43 53.2662L1147.06 59.0277C1156.1 60.5682 1158.72 61.0001 1161.49 66.9671C1162.66 69.4745 1163.43 72.1456 1163.86 74.8758L1170.32 115.722L1154.09 154.758L1143.34 142.676L1154.83 112.157L1152.92 104.856" fill="#2F4644"/>
</g>
<g clip-path="url(#clip1_0_1)">
<path d="M299.45 174H40.5652C34.5258 174 29.6299 178.908 29.6299 184.963V377.896C29.6299 383.951 34.5258 388.859 40.5652 388.859H299.45C305.489 388.859 310.385 383.951 310.385 377.896V184.963C310.385 178.908 305.489 174 299.45 174Z" fill="#D7D7D8"/>
<path d="M40.5652 176.519C35.9217 176.519 32.1426 180.308 32.1426 184.963V377.891C32.1426 382.546 35.9217 386.335 40.5652 386.335H299.45C304.094 386.335 307.873 382.546 307.873 377.891V184.963C307.873 180.308 304.094 176.519 299.45 176.519H40.5652Z" fill="white"/>
<path d="M171.005 175.285H169V387.811H171.005V175.285Z" fill="#D7D7D8"/>
<path d="M158.085 209.886C159.653 209.886 160.924 208.612 160.924 207.04C160.924 205.468 159.653 204.193 158.085 204.193C156.517 204.193 155.246 205.468 155.246 207.04C155.246 208.612 156.517 209.886 158.085 209.886Z" fill="#D7D7D8"/>
<path d="M181.925 209.886C183.493 209.886 184.765 208.612 184.765 207.04C184.765 205.468 183.493 204.193 181.925 204.193C180.357 204.193 179.086 205.468 179.086 207.04C179.086 208.612 180.357 209.886 181.925 209.886Z" fill="#D7D7D8"/>
<path d="M158.085 247.082C159.653 247.082 160.924 245.808 160.924 244.236C160.924 242.664 159.653 241.389 158.085 241.389C156.517 241.389 155.246 242.664 155.246 244.236C155.246 245.808 156.517 247.082 158.085 247.082Z" fill="#D7D7D8"/>
<path d="M181.925 247.082C183.493 247.082 184.765 245.808 184.765 244.236C184.765 242.664 183.493 241.389 181.925 241.389C180.357 241.389 179.086 242.664 179.086 244.236C179.086 245.808 180.357 247.082 181.925 247.082Z" fill="#D7D7D8"/>
<path d="M158.085 284.273C159.653 284.273 160.924 282.999 160.924 281.427C160.924 279.855 159.653 278.58 158.085 278.58C156.517 278.58 155.246 279.855 155.246 281.427C155.246 282.999 156.517 284.273 158.085 284.273Z" fill="#D7D7D8"/>
<path d="M181.925 284.273C183.493 284.273 184.765 282.999 184.765 281.427C184.765 279.855 183.493 278.58 181.925 278.58C180.357 278.58 179.086 279.855 179.086 281.427C179.086 282.999 180.357 284.273 181.925 284.273Z" fill="#D7D7D8"/>
<path d="M158.085 321.47C159.653 321.47 160.924 320.195 160.924 318.623C160.924 317.051 159.653 315.777 158.085 315.777C156.517 315.777 155.246 317.051 155.246 318.623C155.246 320.195 156.517 321.47 158.085 321.47Z" fill="#D7D7D8"/>
<path d="M181.925 321.47C183.493 321.47 184.765 320.195 184.765 318.623C184.765 317.051 183.493 315.777 181.925 315.777C180.357 315.777 179.086 317.051 179.086 318.623C179.086 320.195 180.357 321.47 181.925 321.47Z" fill="#D7D7D8"/>
<path d="M158.085 358.661C159.653 358.661 160.924 357.386 160.924 355.814C160.924 354.242 159.653 352.968 158.085 352.968C156.517 352.968 155.246 354.242 155.246 355.814C155.246 357.386 156.517 358.661 158.085 358.661Z" fill="#D7D7D8"/>
<path d="M181.925 358.661C183.493 358.661 184.765 357.386 184.765 355.814C184.765 354.242 183.493 352.968 181.925 352.968C180.357 352.968 179.086 354.242 179.086 355.814C179.086 357.386 180.357 358.661 181.925 358.661Z" fill="#D7D7D8"/>
<path d="M158.346 205.725L157.818 204.868C157.949 204.788 170.935 196.923 182.212 204.883L181.634 205.71C170.9 198.132 158.467 205.649 158.346 205.725Z" fill="#D7D7D8"/>
<path d="M158.346 209.216L157.818 208.36C157.949 208.279 170.935 200.415 182.212 208.375L181.634 209.201C170.9 201.624 158.467 209.141 158.346 209.216Z" fill="#D7D7D8"/>
<path d="M158.346 243.082L157.818 242.226C157.949 242.145 170.935 234.281 182.212 242.241L181.634 243.067C170.9 235.49 158.467 243.007 158.346 243.082Z" fill="#D7D7D8"/>
<path d="M158.346 246.579L157.818 245.722C157.949 245.641 170.935 237.777 182.212 245.737L181.634 246.563C170.9 238.986 158.467 246.503 158.346 246.579Z" fill="#D7D7D8"/>
<path d="M158.346 280.44L157.818 279.583C157.949 279.502 170.935 271.638 182.212 279.598L181.634 280.424C170.9 272.847 158.467 280.364 158.346 280.44Z" fill="#D7D7D8"/>
<path d="M158.346 283.936L157.818 283.079C157.949 282.999 170.93 275.134 182.212 283.095L181.634 283.921C170.9 276.344 158.467 283.86 158.346 283.936Z" fill="#D7D7D8"/>
<path d="M158.346 317.797L157.818 316.94C157.949 316.86 170.935 308.995 182.212 316.956L181.634 317.782C170.9 310.21 158.467 317.721 158.346 317.797Z" fill="#D7D7D8"/>
<path d="M158.346 321.293L157.818 320.437C157.949 320.356 170.93 312.492 182.212 320.452L181.634 321.278C170.9 313.701 158.467 321.218 158.346 321.293Z" fill="#D7D7D8"/>
<path d="M158.346 355.154L157.818 354.298C157.949 354.217 170.935 346.353 182.212 354.313L181.634 355.134C170.9 347.557 158.467 355.074 158.346 355.149V355.154Z" fill="#D7D7D8"/>
<path d="M158.346 358.651L157.818 357.794C157.949 357.714 170.935 349.849 182.212 357.809L181.634 358.631C170.9 351.053 158.467 358.57 158.346 358.646V358.651Z" fill="#D7D7D8"/>
<path d="M233.607 230.311C233.607 230.311 223.265 231.479 222.596 247.536C222.038 260.917 220.903 268.373 226.335 271.164C228.275 272.162 230.556 272.248 232.632 271.567L254.794 264.262C254.794 264.262 255.126 240.18 247.452 234.326C239.778 228.472 233.607 230.311 233.607 230.311Z" fill="#2F2E43"/>
<path d="M245.824 267.22L234.607 270.918V254.73H244.783L245.824 267.22Z" fill="#F3A3A6"/>
<path d="M211.535 359.104C210.927 362.812 208.46 365.472 206.027 365.044C203.59 364.616 202.113 361.26 202.721 357.552C202.942 356.066 203.53 354.661 204.429 353.456L207.208 337.778L214.772 339.365L211.229 354.65C211.696 356.096 211.802 357.623 211.535 359.104Z" fill="#F3A3A6"/>
<path d="M237.215 463.352H226.712L220.621 407.082H236.858L237.215 463.352Z" fill="#F3A3A6"/>
<path d="M216.48 472.4C215.375 472.4 214.39 472.375 213.651 472.305C210.862 472.048 208.198 469.982 206.862 468.778C206.263 468.239 206.068 467.372 206.379 466.627C206.605 466.093 207.052 465.695 207.61 465.534L214.983 463.423L226.923 455.347L227.059 455.588C227.109 455.679 228.28 457.795 228.672 459.226C228.823 459.77 228.782 460.223 228.556 460.576C228.4 460.818 228.179 460.959 228.003 461.04C228.22 461.266 228.898 461.725 230.984 462.057C234.034 462.541 234.667 459.377 234.697 459.246L234.717 459.14L234.808 459.08C236.255 458.143 237.15 457.72 237.456 457.81C237.647 457.866 237.969 457.966 238.833 466.581C238.919 466.854 239.527 468.833 239.115 470.733C238.667 472.798 229.677 472.088 227.878 471.922C227.828 471.927 221.099 472.405 216.485 472.405L216.48 472.4Z" fill="#2F2E43"/>
<path d="M260.951 463.352H250.442L244.352 407.082H260.589L260.951 463.352Z" fill="#F3A3A6"/>
<path d="M240.216 472.4C239.11 472.4 238.125 472.375 237.386 472.305C234.597 472.048 231.934 469.982 230.597 468.778C229.999 468.239 229.803 467.372 230.114 466.627C230.341 466.093 230.788 465.695 231.346 465.534L238.718 463.423L250.658 455.347L250.794 455.588C250.844 455.679 252.015 457.795 252.407 459.226C252.558 459.77 252.518 460.223 252.292 460.576C252.136 460.818 251.915 460.959 251.739 461.04C251.955 461.266 252.633 461.725 254.719 462.057C257.769 462.541 258.403 459.377 258.433 459.246L258.453 459.14L258.543 459.08C259.996 458.143 260.885 457.72 261.192 457.81C261.383 457.866 261.704 457.966 262.569 466.581C262.654 466.854 263.262 468.833 262.85 470.733C262.403 472.798 253.412 472.088 251.613 471.922C251.563 471.927 244.834 472.405 240.221 472.405L240.216 472.4Z" fill="#2F2E43"/>
<path d="M263.971 325.137H212.927L231.275 264.595H251.628L263.971 325.137Z" fill="#2F4644"/>
<path d="M234.486 264.605C234.486 264.605 221.807 264.272 220.476 267.618C219.139 270.963 203.459 350.57 203.459 350.57H213.802L234.486 264.61V264.605Z" fill="#2F4644"/>
<path d="M235.994 259.209C242.167 259.209 247.17 254.193 247.17 248.004C247.17 241.816 242.167 236.8 235.994 236.8C229.821 236.8 224.817 241.816 224.817 248.004C224.817 254.193 229.821 259.209 235.994 259.209Z" fill="#F3A3A6"/>
<path d="M232.939 234.492C232.939 234.492 226.788 259.532 233.627 271.235L223.993 269.184C223.993 269.184 220.26 241.782 227.768 236.8L232.939 234.492Z" fill="#2F2E43"/>
<path d="M253.362 325.137H219.862L201.535 400.552C201.198 403.736 203.213 406.709 206.299 407.54C216.355 410.241 240.487 414.065 277.007 403.409C280.519 402.386 282.514 398.668 281.414 395.167L253.362 325.137Z" fill="#2F2E43"/>
<path d="M336 472.4C336 472.733 335.734 473 335.402 473H0.598026C0.266348 473 0 472.733 0 472.4C0 472.068 0.266348 471.801 0.598026 471.801H335.402C335.734 471.801 336 472.068 336 472.4Z" fill="#2F2E43"/>
<path d="M239.818 264.595L250.236 264.136C254.749 264.479 258.83 266.937 261.247 270.771C268.609 282.44 282.384 307.031 270.087 310.401C253.874 314.84 246.02 290.128 246.02 290.128L239.818 264.595Z" fill="#2F4644"/>
<path d="M230.215 273.482L255.724 254.861C256.025 254.64 256.447 254.71 256.668 255.012L257.287 255.864C257.508 256.166 257.437 256.589 257.136 256.811L231.632 275.432H231.627L228.245 276.893L227.988 276.54L230.215 273.482Z" fill="#2F2E43"/>
<path d="M236.245 271.925C234.104 268.842 234.029 265.209 236.069 263.814C238.115 262.418 241.507 263.794 243.648 266.877C244.522 268.096 245.075 269.517 245.266 271.008L254.166 284.198L247.638 288.344L239.557 274.903C238.215 274.192 237.079 273.17 236.245 271.925Z" fill="#F3A3A6"/>
<path d="M241.512 282.591L248.864 275.805L263.402 289.377L249.884 298.642L241.512 282.591Z" fill="#2F4644"/>
<path d="M55.6969 212.239C66.0241 211.841 76.3614 211.67 86.6987 211.73C97.036 211.791 107.202 212.078 117.439 212.597C123.269 212.889 129.088 213.257 134.908 213.7C135.878 213.776 135.873 212.259 134.908 212.189C124.601 211.408 114.278 210.859 103.946 210.536C93.6137 210.214 83.4423 210.133 73.1904 210.269C67.3559 210.35 61.5214 210.501 55.6919 210.728C54.727 210.763 54.7219 212.274 55.6919 212.239H55.6969Z" fill="#2F4644"/>
<path d="M55.6969 229.338C66.0241 228.94 76.3614 228.769 86.6987 228.829C97.036 228.89 107.202 229.177 117.439 229.696C123.269 229.988 129.088 230.356 134.908 230.799C135.878 230.875 135.873 229.358 134.908 229.288C124.601 228.507 114.278 227.958 103.946 227.635C93.6137 227.313 83.4423 227.232 73.1904 227.368C67.3559 227.449 61.5214 227.6 55.6919 227.827C54.727 227.862 54.7219 229.374 55.6919 229.338H55.6969Z" fill="#2F2E43"/>
<path d="M55.6967 246.438C64.0791 246.11 72.4666 245.737 80.859 245.591C88.0354 245.465 95.2117 245.581 102.378 245.929C107.489 246.176 112.595 246.523 117.7 246.906C118.67 246.982 118.665 245.465 117.7 245.395C109.338 244.76 100.966 244.241 92.5783 244.08C85.402 243.944 78.2207 244.1 71.0494 244.342C65.9335 244.518 60.8176 244.725 55.6967 244.926C54.7319 244.961 54.7268 246.473 55.6967 246.438Z" fill="#2F2E43"/>
<path d="M55.6966 263.537C64.5715 263.194 73.4514 262.831 82.3314 262.7C90.2816 262.58 98.2368 262.685 106.182 263.048C111.474 263.29 116.761 263.627 122.047 264.031C123.017 264.106 123.012 262.59 122.047 262.519C113.193 261.849 104.328 261.35 95.4528 261.199C87.4975 261.058 79.5423 261.199 71.592 261.451C66.2952 261.617 60.9984 261.824 55.7016 262.03C54.7367 262.066 54.7317 263.577 55.7016 263.542L55.6966 263.537Z" fill="#2F2E43"/>
<path d="M55.6967 280.631C63.7676 280.319 71.8284 279.825 79.8942 279.447C86.5579 279.135 93.2216 279.029 99.8903 279.251C104.886 279.417 109.876 279.729 114.856 280.107C115.826 280.183 115.821 278.666 114.856 278.596C106.815 277.986 98.7646 277.558 90.6988 277.618C84.02 277.669 77.3563 278.057 70.6926 278.414C65.6973 278.681 60.697 278.923 55.6967 279.12C54.7319 279.155 54.7268 280.671 55.6967 280.631Z" fill="#2F2E43"/>
<path d="M55.6969 297.73C66.0241 297.332 76.3614 297.161 86.6987 297.221C97.036 297.282 107.202 297.569 117.439 298.088C123.269 298.38 129.088 298.748 134.908 299.191C135.878 299.267 135.873 297.75 134.908 297.68C124.601 296.899 114.278 296.35 103.946 296.027C93.6137 295.705 83.4423 295.624 73.1904 295.76C67.3559 295.841 61.5214 295.992 55.6919 296.219C54.727 296.254 54.7219 297.765 55.6919 297.73H55.6969Z" fill="#2F2E43"/>
</g>
<defs>
<clipPath id="clip0_0_1">
<rect width="348" height="317" fill="white" transform="translate(866)"/>
</clipPath>
<clipPath id="clip1_0_1">
<rect width="336" height="299" fill="white" transform="translate(0 174)"/>
</clipPath>
</defs>
</svg>
